<svg id="Capa_1" data-name="Capa 1" xmlns="http://www.w3.org/2000/svg" viewBox="0 0 121.41 122.79"><defs><style>.cls-1{fill:#fff;}.cls-2{fill:#003688;stroke-width:0.91px;}.cls-2,.cls-3{stroke:#211915;stroke-miterlimit:10;}.cls-3{fill:#bf0811;stroke-width:0.91px;}</style></defs><title>icono desumex 126X157</title><circle class="cls-1" cx="60.73" cy="60.68" r="31.06"/><path class="cls-2" d="M28.94,117.23c-2.44,1.51-4.81,2.92-7.13,4.42-4.34,2.83-5.13,2.7-7.9-1.53-1.47-2.25-2.87-4.54-4.37-6.77-1.64-2.43-1.24-4.69,1.35-5.69,8.09-3.13,8-8.31,6.57-16-1.33-7.23-4-9.82-10.79-10.27C2.24,81,1.53,79.43,2.4,75.11c.57-2.88,1.13-5.76,1.76-8.63.52-2.42,2-3.64,4.46-2.75,7.39,2.68,13.16,1.73,16.11-6.55a11.32,11.32,0,0,1,2.51-3.37c1.85-2.07,1.69-4.15.23-6.29-.64-1-1.35-1.87-2-2.79-4.49-6.08-4.58-6.21,1.5-10.36,9.1-6.2,7.47-7.72,14.29,2.21,2,3,4.38,3.92,7.84,2.84a49.06,49.06,0,0,1,8.24-1.73c3.54-.48,5.52-2.38,6.14-5.81,2.19-12,2.11-9.83,12.2-7.78C82.72,25.53,83,26,81.23,33,79.54,39.9,80,39.4,85.43,43.86c6.65,5.41,12.57,7.15,19.25.43,1.76-1.78,3.77-1.15,5.15,1,1.81,2.79,3.61,5.58,5.44,8.36,1.61,2.45,1.08,4.74-1.42,5.75-7.69,3.14-9.5,8.4-6.56,15.85a17.32,17.32,0,0,1,.49,3.79,5.42,5.42,0,0,0,4.93,5.06c1.39.21,2.76.53,4.14.77,6.06,1.05,6.31,1.38,5.22,7.44-.43,2.38-1.07,4.74-1.4,7.14-.42,3-2.21,3.77-4.9,3.28-.25,0-.5-.11-.75-.13-3.23-.27-7.72-2-9.44-.5-3.72,3.2-6.38,7.87-8.7,12.34-.74,1.44.46,4.46,1.61,6.21,5.3,8,6.26,7.24-2.35,13C89,138.44,89,138.48,84.3,131.2c-3-4.61-3.9-5-9.11-3.74-2.85.68-5.72,1.31-8.58,2-3.09.67-4.71,2.46-5.38,5.66-2.33,11.15-.8,10.12-12.19,7.86-7.2-1.44-7.29-1.74-5.54-8.91,1.67-6.84,1.63-6.83-4.57-10.57-2.07-1.25-3.93-2.85-6-4.18A42.23,42.23,0,0,0,28.94,117.23Zm33.63-3.84A30,30,0,0,0,92.93,82.93a30.42,30.42,0,1,0-30.36,30.46Z" transform="translate(-1.62 -22.04)"/><path class="cls-3" d="M46,59.84H63.1a33.21,33.21,0,0,1,8.8.89,15.49,15.49,0,0,1,7,4.26,20.31,20.31,0,0,1,4.42,7.49,34.17,34.17,0,0,1,1.51,10.94,30.24,30.24,0,0,1-1.42,9.84,20.54,20.54,0,0,1-5,8.18,16.47,16.47,0,0,1-6.57,3.69,28.34,28.34,0,0,1-8.27,1H46Zm9.34,7.83V98.31h7A25.17,25.17,0,0,0,68,97.87,8.65,8.65,0,0,0,71.76,96a9.84,9.84,0,0,0,2.45-4.47A30.26,30.26,0,0,0,75.15,83a27.75,27.75,0,0,0-.94-8.24,10.64,10.64,0,0,0-2.65-4.48,9,9,0,0,0-4.33-2.18,42.82,42.82,0,0,0-7.67-.44Z" transform="translate(-1.62 -22.04)"/></svg>