<svg id="Capa_1" data-name="Capa 1" xmlns="http://www.w3.org/2000/svg" viewBox="0 0 247.5 250.33"><defs><style>.cls-1{fill:#003688;stroke-width:1.86px;}.cls-1,.cls-2{stroke:#211915;stroke-miterlimit:10;}.cls-2{fill:#bf0811;stroke-width:1.86px;}</style></defs><title>Icono Desumex</title><path class="cls-1" d="M59.58,195.88c-5,3.08-9.8,6-14.51,9-8.86,5.76-10.48,5.5-16.11-3.13-3-4.58-5.85-9.26-8.91-13.8-3.34-4.95-2.53-9.55,2.74-11.59,16.51-6.38,16.3-16.94,13.4-32.73-2.72-14.74-8.14-20-22-20.94-9-.6-10.48-3.88-8.72-12.7,1.18-5.86,2.32-11.74,3.59-17.58,1.07-4.94,4.1-7.42,9.1-5.61C33.23,92.29,45,90.35,51,73.47c.92-2.58,3.2-4.76,5.11-6.88,3.79-4.21,3.45-8.45.48-12.82-1.32-1.94-2.75-3.8-4.15-5.69C43.31,35.7,43.12,35.43,55.53,27c18.54-12.65,15.22-15.74,29.12,4.51,4.12,6,8.92,8,16,5.77a102.06,102.06,0,0,1,16.79-3.53c7.22-1,11.25-4.85,12.53-11.82C134.41-2.52,134.25,1.84,154.83,6,169.24,9,169.7,9.82,166.19,24.18c-3.44,14-2.61,13,8.57,22.13,13.55,11,25.63,14.58,39.23.87,3.6-3.62,7.69-2.33,10.51,2,3.69,5.69,7.36,11.38,11.09,17.05,3.29,5,2.2,9.65-2.89,11.72-15.68,6.39-19.38,17.11-13.38,32.3.93,2.35.63,5.16,1,7.74.85,5.84,4,9.42,10,10.31,2.83.42,5.63,1.07,8.45,1.56,12.34,2.15,12.85,2.83,10.63,15.17-.88,4.87-2.19,9.67-2.86,14.56-.85,6.21-4.49,7.68-10,6.7-.51-.09-1-.22-1.54-.27-6.59-.55-15.73-4.06-19.23-1-7.59,6.53-13,16-17.73,25.15-1.52,2.94.92,9.11,3.27,12.67,10.81,16.4,12.76,14.76-4.79,26.52-14.62,9.8-14.57,9.88-24.13-5-6.05-9.39-8-10.14-18.58-7.62-5.82,1.39-11.66,2.68-17.5,4-6.28,1.39-9.6,5-11,11.56-4.74,22.73-1.63,20.62-24.83,16-14.69-2.92-14.87-3.55-11.3-18.16,3.41-14,3.33-13.92-9.32-21.55-4.22-2.56-8-5.81-12.16-8.51A88.27,88.27,0,0,0,59.58,195.88ZM128.14,188c34.79.05,61.91-27.16,61.9-62.07a62.12,62.12,0,0,0-62.4-61.92C93.83,64.11,66.12,92,66,126A61.7,61.7,0,0,0,128.14,188Z" transform="translate(-3.9 -1.84)"/><path class="cls-2" d="M94.43,78.89h34.8q11.78,0,18,1.81a31.58,31.58,0,0,1,14.22,8.68,41.36,41.36,0,0,1,9,15.28q3.08,9,3.08,22.29A62,62,0,0,1,170.6,147a41.65,41.65,0,0,1-10.1,16.67,33.64,33.64,0,0,1-13.38,7.52q-6.31,2-16.86,2H94.43Zm19,16v62.47h14.22a51.92,51.92,0,0,0,11.51-.9,17.62,17.62,0,0,0,7.69-3.93q3.06-2.76,5-9.1t1.93-17.27q0-11-1.93-16.8a21.59,21.59,0,0,0-5.41-9.13,18,18,0,0,0-8.81-4.44q-4-.9-15.63-.9Z" transform="translate(-3.9 -1.84)"/></svg>