<svg id="Capa_1" data-name="Capa 1" xmlns="http://www.w3.org/2000/svg" viewBox="0 0 240.39 243.14"><defs><style>.cls-1{fill:#fff;}.cls-2{fill:#003688;stroke-width:1.8px;}.cls-2,.cls-3{stroke:#211915;stroke-miterlimit:10;}.cls-3{fill:#bf0811;stroke-width:1.8px;}</style></defs><title>icono desumex256X256</title><circle class="cls-1" cx="120.26" cy="120.16" r="61.51"/><path class="cls-2" d="M62,194.94c-4.83,3-9.53,5.79-14.1,8.76-8.6,5.59-10.18,5.34-15.65-3-2.91-4.45-5.68-9-8.65-13.4C20.3,182.45,21.09,178,26.21,176c16-6.2,15.84-16.45,13-31.79-2.64-14.32-7.9-19.44-21.35-20.34-8.79-.58-10.18-3.77-8.47-12.33,1.14-5.7,2.25-11.4,3.48-17.08,1-4.8,4-7.21,8.84-5.45,14.63,5.31,26.06,3.43,31.9-13,.9-2.5,3.1-4.62,5-6.68,3.68-4.09,3.35-8.21.47-12.45-1.28-1.88-2.67-3.69-4-5.53-8.88-12-9.06-12.28,3-20.5,18-12.29,14.78-15.29,28.28,4.38,4,5.83,8.67,7.75,15.53,5.61a99.12,99.12,0,0,1,16.31-3.43c7-.94,10.92-4.71,12.16-11.49,4.33-23.71,4.18-19.48,24.16-15.42,14,2.85,14.45,3.7,11,17.64-3.34,13.65-2.54,12.66,8.32,21.49,13.17,10.71,24.9,14.16,38.11.85,3.49-3.51,7.47-2.27,10.2,2,3.59,5.52,7.16,11,10.78,16.55,3.19,4.85,2.13,9.38-2.81,11.39-15.23,6.21-18.82,16.62-13,31.37.9,2.28.61,5,1,7.52.84,5.67,3.93,9.14,9.76,10,2.75.41,5.46,1,8.2,1.52,12,2.09,12.49,2.75,10.33,14.73-.86,4.73-2.12,9.39-2.77,14.14-.83,6-4.37,7.47-9.7,6.51a15.17,15.17,0,0,0-1.5-.26c-6.39-.54-15.27-3.94-18.68-1-7.36,6.34-12.63,15.58-17.22,24.43-1.47,2.85.9,8.84,3.18,12.3,10.5,15.93,12.39,14.34-4.65,25.76-14.2,9.52-14.15,9.59-23.44-4.83-5.87-9.12-7.72-9.85-18-7.39-5.65,1.34-11.33,2.59-17,3.84-6.1,1.34-9.33,4.87-10.65,11.22-4.62,22.08-1.59,20-24.12,15.55-14.27-2.83-14.45-3.44-11-17.63,3.31-13.55,3.23-13.52-9.05-20.94-4.1-2.48-7.79-5.63-11.81-8.26A85.64,85.64,0,0,0,62,194.94Zm66.59-7.61c33.78,0,60.13-26.38,60.11-60.3A60.32,60.32,0,0,0,128,66.9C95.21,67,68.29,94,68.22,127A59.93,59.93,0,0,0,128.54,187.33Z" transform="translate(-7.86 -6.47)"/><path class="cls-3" d="M95.79,81.31h33.8q11.44,0,17.44,1.75a30.72,30.72,0,0,1,13.81,8.44,40.08,40.08,0,0,1,8.75,14.84q3,8.77,3,21.65a60.08,60.08,0,0,1-2.82,19.5A40.36,40.36,0,0,1,160,163.67,32.49,32.49,0,0,1,147,171q-6.14,1.94-16.38,1.94H95.79Zm18.5,15.5v60.68h13.8a50.53,50.53,0,0,0,11.19-.88,17.1,17.1,0,0,0,7.47-3.81q3-2.69,4.84-8.84t1.87-16.78q0-10.62-1.87-16.31a20.92,20.92,0,0,0-5.25-8.87,17.54,17.54,0,0,0-8.56-4.31q-3.87-.89-15.18-.88Z" transform="translate(-7.86 -6.47)"/></svg>